#!OML:ASF H:\MichaelJackson\Top Level 1\Subject 1\Session 1\male.ASF
:FULLY-SPECIFIED
:DEGREES
548
root -14.118 16.9927 14.6275 -158.045 72.734 -163.651
lowerback 2.12549 0.69339 -5.632
upperback 0.605669 0.815423 0.744124
thorax -0.657795 0.415727 3.90549
lowerneck -8.92085 -9.86866 -3.30379
upperneck 10.0694 -13.2327 3.44242
head 4.92748 -6.40265 0.637391
rclavicle -2.73329e-014 4.77083e-015
rhumerus -50.5198 17.393 -105.511
rradius 78.8767
rwrist 12.6215
rhand -21.235 -6.76063
rfingers 7.12502
rthumb 5.1474 -396.678
lclavicle -2.73329e-014 4.77083e-015
lhumerus -40.5377 -29.7268 112.55
lradius 60.6175
lwrist 10.2877
lhand 7.41374 17.2657
lfingers 7.12502
lthumb 32.6694 44.3351
rfemur -58.3075 12.7891 13.9566
rtibia 84.1206
rfoot 31.4562 23.1586
rtoes 13.9485
lfemur -19.0573 -4.70696 -17.4702
ltibia 46.3623
lfoot -24.5583 -9.08498
ltoes 13.4357
549
root -14.0641 17.0082 14.7422 -160.057 69.821 -165.852
lowerback 2.04068 0.450035 -5.79609
upperback 0.604678 0.493273 0.799553
thorax -0.577638 0.252416 4.06546
lowerneck -8.8692 -10.1877 -3.46574
upperneck 10.0824 -13.6899 3.81933
head 4.97654 -6.60844 0.736634
rclavicle 8.54774e-015 -7.95139e-016
rhumerus -50.9563 15.9366 -104.713
rradius 78.4856
rwrist 12.3348
rhand -22.4529 -6.99987
rfingers 7.12502
rthumb 3.97143 -396.943
lclavicle 8.54774e-015 -7.95139e-016
lhumerus -40.4709 -29.9104 112.719
lradius 60.2979
lwrist 10.0042
lhand 8.06699 17.9117
lfingers 7.12502
lthumb 33.2907 44.8501
rfemur -58.1195 13.2041 13.4878
rtibia 83.1083
rfoot 31.9318 23.3291
rtoes 16.0497
lfemur -19.2668 -2.97393 -17.1501
ltibia 46.3149
lfoot -24.5917 -8.53135
ltoes 11.838
550
root -14.0091 17.0217 14.8548 -161.648 66.9116 -167.592
lowerback 2.03462 0.184064 -5.98261
upperback 0.608193 0.135992 0.843681
thorax -0.530375 0.072376 4.22596
lowerneck -8.81598 -10.4681 -3.60405
upperneck 10.1181 -14.0973 4.18031
head 5.03021 -6.78921 0.830288
rclavicle -3.926e-014 -7.95139e-015
rhumerus -51.3465 14.4647 -103.89
rradius 78.0819
rwrist 11.8973
rhand -23.6823 -7.34498
rfingers 7.12502
rthumb 2.78417 -397.307
lclavicle -3.926e-014 -7.95139e-015
lhumerus -40.3943 -30.1162 112.859
lradius 59.9632
lwrist 9.76534
lhand 8.51839 18.4719
lfingers 7.12502
lthumb 33.7198 45.3174
rfemur -57.8659 13.491 13.0083
rtibia 82.0914
rfoot 31.9981 23.5584
rtoes 17.3005
lfemur -19.4986 -1.07484 -16.9452
ltibia 46.3389
lfoot -24.5654 -7.84794
ltoes 10.1272
551
root -13.9529 17.0324 14.9636 -162.908 64.0398 -168.96
lowerback 2.09312 -0.0988206 -6.15567
upperback 0.609382 -0.247804 0.887815
thorax -0.515672 -0.119912 4.37915
lowerneck -8.75534 -10.7038 -3.74104
upperneck 10.1865 -14.444 4.51966
head 5.09075 -6.94063 0.921092
rclavicle 2.56432e-014 -1.82882e-014
rhumerus -51.7055 13.0087 -103.032
rradius 77.6885
rwrist 11.1871
rhand -24.849 -7.76714
rfingers 7.12502
rthumb 1.65743 -397.74
lclavicle 2.56432e-014 -1.82882e-014
lhumerus -40.3097 -30.3279 112.987
lradius 59.6025
lwrist 9.57312
lhand 8.72138 18.9073
lfingers 7.12502
lthumb 33.9126 45.7104
rfemur -57.5402 13.6697 12.548
rtibia 81.0687
rfoot 31.6668 23.7164
rtoes 17.835
lfemur -19.7423 0.969199 -16.8394
ltibia 46.424
lfoot -24.4878 -6.98572
ltoes 8.31115
552
root -13.8953 17.0397 15.0677 -163.911 61.2472 -170.052
lowerback 2.18534 -0.390612 -6.324
upperback 0.594944 -0.646396 0.943702
thorax -0.531167 -0.31832 4.54259
lowerneck -8.67874 -10.8907 -3.87732
upperneck 10.2865 -14.7215 4.81551
head 5.15379 -7.06027 1.0043
rclavicle -3.97569e-015 -3.57812e-014
rhumerus -52.0515 11.598 -102.126
rradius 77.3327
rwrist 10.0822
rhand -25.8823 -8.19024
rfingers 7.12502
rthumb 0.659406 -398.169
lclavicle -3.97569e-015 -3.57812e-014
lhumerus -40.2227 -30.5316 113.121
lradius 59.2149
lwrist 9.43674
lhand 8.71488 19.2135
lfingers 7.12502
lthumb 33.9064 46.018
rfemur -57.1701 13.7706 12.1108
rtibia 80.0401
rfoot 30.896 23.875
rtoes 17.3891
lfemur -20.0121 3.14694 -16.8283
ltibia 46.5593
lfoot -24.3687 -5.96789
ltoes 6.51305
553
root -13.8371 17.0439 15.1661 -164.751 58.5109 -170.959
lowerback 2.29014 -0.693878 -6.45211
upperback 0.58014 -1.0606 1.00032
thorax -0.5497 -0.524441 4.68494
lowerneck -8.58949 -11.035 -4.0274
upperneck 10.4089 -14.9381 5.08525
head 5.21921 -7.15179 1.08675
rclavicle -6.95746e-015 -3.18055e-015
rhumerus -52.3609 10.2235 -101.168
rradius 77.0345
rwrist 8.53721
rhand -26.7627 -8.61986
rfingers 7.12502
rthumb -0.190857 -398.6
lclavicle -6.95746e-015 -3.18055e-015
lhumerus -40.1119 -30.7701 113.255
lradius 58.7964
lwrist 9.35265
lhand 8.59362 19.4079
lfingers 7.12502
lthumb 33.7912 46.2377
rfemur -56.7409 13.7664 11.692
rtibia 78.9964
rfoot 29.7902 23.938
rtoes 16.3481
lfemur -20.3004 5.37854 -16.9107
ltibia 46.7245
lfoot -24.2323 -4.80041
ltoes 4.71707
